<?xml version="1.0" encoding="UTF-8"?>
<svg id="OFFICIAL_LOGO" data-name="OFFICIAL LOGO" xmlns="http://www.w3.org/2000/svg" viewBox="0 0 1236 811.64">
  <defs>
    <style>
      .cls-1 {
        fill: #2fc064;
      }

      .cls-2 {
        fill: #0e2a47;
      }
    </style>
  </defs>
  <path class="cls-1" d="M733.3,147.35s12.61-135.57-176.56-135.57c0,0-60.69,135.57,176.56,135.57Z"/>
  <path class="cls-1" d="M733.47,153.13s91.62-117.56,234.71-10.5c0,0-98.73,146.49-234.71,10.5"/>
  <g>
    <circle class="cls-2" cx="570.1" cy="494.54" r="25.89" transform="translate(-104.96 832) rotate(-67.5)"/>
    <path class="cls-2" d="M974.79,133.79c-43.04-32.2-109.5-64.64-181.65-36.33-20.88,8.19-37.32,19.61-48.85,29.36-2.33-19.11-9.91-47.8-33.16-73.31C678.77,18,626.82,0,556.74,0c-4.64,0-8.85,2.73-10.75,6.96-.87,1.95-21.06,48.24,6.22,90.34,24.35,37.57,77.53,58.17,158.21,61.37-53.36,37.24-91.74,75.19-119.18,109.22-43.87-6-86.05-4.67-119.79,3.92-26.24,6.68-45.69,17.37-57.08,31.06l-.37.34c-35.12,32.94-114.13,140.74-132.92,211.17-6.53,21.59-11.9,42.97-6.26,67.05l.14.56c5.14,17.93,20.73,30.94,40.65,33.95,7.23,1.12,14.53.81,21.59.52,4.66-.19,9.07-.38,12.77-.09l.42.02c13.39.55,22.17,13.22,26.27,20.9,3.91,8.33,5.86,16.67,8.11,26.31,1.17,5.01,2.38,10.19,3.94,15.66,4.8,18.41,9.25,34.97,15.04,51.12l.12.33c9.03,23.02,19.17,45.02,43.63,61.27l.37.24c16.23,9.93,36.2,16.46,56.26,18.42,4.89.66,9.93.97,15.06.97,45.17,0,97.27-23.63,113.39-33.72,18.77-10.43,39.99-28.01,58.35-48.35,19.81-22.32,35.62-45.87,47.05-70.11,15.92-34.72,28.84-73.11,38.39-114.12l.07-.3c7.67-37.23,7.9-42.65,8.57-58.73.13-3.06.27-6.54.5-10.76v-.3c.64-23.35.1-56.77-6.01-83.44l-.66-2.71c-1.74-7.13-3.74-15.26-7.46-22.6-5.03-18.48-20.76-36.81-45.99-53.11-28.13-18.18-65.79-32.48-107.33-40.94,37.24-43.44,80.03-77.11,114.38-100.31.98-.66,1.82-1.45,2.53-2.31,37.63,34.66,76.06,52.17,114.55,52.17,4.08,0,8.17-.2,12.25-.59,70.47-6.8,113.78-69.93,115.59-72.62,3.29-4.88,2.17-11.48-2.54-15ZM538.75,287.74c11.4,0,23.44.6,35.99,1.89-10.01,14.06-18.1,27.17-24.6,38.94-58.51-3.52-104.57,7.64-113.39,28.9-7.92-9.56-11.55-18.95-10.19-27.25,3.84-23.47,48.04-42.48,112.18-42.48ZM759.32,412.83c3.04,22.39,3.02,47.13,2.64,61.64-.22,4.25-.37,7.76-.5,10.86-.65,15.43-.82,19.59-8.08,54.81-9.19,39.42-21.58,76.26-36.77,109.39-10.42,22.1-24.99,43.77-43.25,64.34-16.71,18.52-35.84,34.41-52.49,43.61l-.61.36c-17.21,10.9-74.22,34.87-113.17,29.47l-.49-.06c-16.58-1.59-33.01-6.9-46.28-14.98-17-11.36-24.98-25.77-34.49-49.97-3.6-10.07-6.7-20.51-9.73-31.57,10.52,1.36,24.89,2.68,41.18,2.68,2.69,0,5.44-.04,8.23-.12,50.15-1.39,90.37-15.85,116.33-41.81,4.6-4.6,4.6-12.06,0-16.65-4.6-4.6-12.06-4.6-16.66,0-45.34,45.34-131.39,35.09-155.67,31.1-.64-2.58-1.24-5.14-1.83-7.65-2.36-10.13-4.8-20.6-9.88-31.29l-.23-.46c-11.04-20.85-27.38-32.78-46.03-33.63-5.02-.37-10.26-.15-15.34.06-5.93.25-12.06.5-17.05-.27-4.06-.61-17.52-3.63-21.48-16.89-4.22-18.41.02-35,6-54.75l.11-.39c13.51-50.91,63.85-127.27,101.09-172.5,5.43,18,21,35.83,45.6,51.72,31.67,20.47,75.42,36.04,123.19,43.86,21.72,3.55,43.16,5.33,63.52,5.33,24.42,0,47.29-2.55,67.22-7.62,24.65-6.27,43.3-16.09,54.92-28.61ZM749.28,383.05c-1.45,8.88-8.53,17.03-20.19,23.78.17-28.44-60.12-60.89-138.31-73.69-5.01-.82-9.97-1.54-14.88-2.16,7.78-13.2,16.29-25.77,25.33-37.7,93.43,15.99,152.94,59.88,148.05,89.77ZM572.1,84.7c-15.02-23-10.51-48.87-7.02-61.05,58.71,1.31,101.88,16.58,128.38,45.45,21.76,23.71,26.88,51.43,27.96,66.36-77.11-1.61-128.62-19.07-149.31-50.75ZM859.47,199.46c-36.35,3.45-73.53-12.3-110.63-46.83,9.18-9.22,27.53-25.08,53.22-34.96,47.36-18.23,97.92-9.07,150.4,27.24-13.55,16.16-47.19,50.21-93,54.56Z"/>
  </g>
</svg>